# xmcd CD database file
#
# Track frame offsets:
#	150
#	16550
#	33602
#	55242
#	77892
#	99072
#	116677
#	149567
#	169787
#	188700
#	212400
#
# Disc length: 3129 seconds
#
# Revision: 0
# Processed by: cddbd v1.5PL3 Copyright (c) Steve Scherf et al.
# Submitted via: CDex 1.51
#
DISCID=890c370b
DTITLE=엄인호 and 박보 BAND - Rainbow Bridge
DYEAR=2002
DGENRE=Blues
TTITLE0=거리에 서서
TTITLE1=골목길
TTITLE2=아버지
TTITLE3=여자의 남자
TTITLE4=L.A BLUES
TTITLE5=왜 불러
TTITLE6=세월아 흘러라
TTITLE7=HAPPY DANCE
TTITLE8=세월이 한참 흐른 뒤에야
TTITLE9=SEOUL CITY BLUES
TTITLE10=이제 그만
EXTD=YEAR: 2002
EXTT0=
EXTT1=
EXTT2=
EXTT3=
EXTT4=
EXTT5=
EXTT6=
EXTT7=
EXTT8=
EXTT9=
EXTT10=
PLAYORDER=
